<svg width="124" height="120" viewBox="0 0 124 120" fill="none" xmlns="http://www.w3.org/2000/svg">
<circle cx="62" cy="60" r="57" fill="#585B65"/>
<path d="M54.5795 79V41.1818H67.358C70.3248 41.1818 72.75 41.7173 74.6335 42.7884C76.5294 43.8471 77.9328 45.2812 78.8438 47.0909C79.7547 48.9006 80.2102 50.9195 80.2102 53.1477C80.2102 55.3759 79.7547 57.401 78.8438 59.223C77.9451 61.045 76.554 62.4976 74.6705 63.581C72.7869 64.652 70.3741 65.1875 67.4318 65.1875H58.2727V61.125H67.2841C69.3153 61.125 70.9465 60.7741 72.1776 60.0724C73.4086 59.3707 74.3011 58.4228 74.8551 57.2287C75.4214 56.0223 75.7045 54.6619 75.7045 53.1477C75.7045 51.6335 75.4214 50.2794 74.8551 49.0852C74.3011 47.8911 73.4025 46.9555 72.1591 46.2784C70.9157 45.589 69.2661 45.2443 67.2102 45.2443H59.1591V79H54.5795Z" fill="#838899"/>
<path d="M42.5114 45.2443V41.1818H70.875V45.2443H58.983V79H54.4034V45.2443H42.5114Z" fill="#838899"/>
</svg>
