<svg width="43" height="49" viewBox="0 0 43 49" fill="none" xmlns="http://www.w3.org/2000/svg">
<g clip-path="url(#clip0_345_11)">
<path d="M14.5795 44V6.18182H27.358C30.3248 6.18182 32.75 6.71733 34.6335 7.78835C36.5294 8.84706 37.9328 10.2812 38.8438 12.0909C39.7547 13.9006 40.2102 15.9195 40.2102 18.1477C40.2102 20.3759 39.7547 22.401 38.8438 24.223C37.9451 26.045 36.554 27.4976 34.6705 28.581C32.7869 29.652 30.3741 30.1875 27.4318 30.1875H18.2727V26.125H27.2841C29.3153 26.125 30.9465 25.7741 32.1776 25.0724C33.4086 24.3707 34.3011 23.4228 34.8551 22.2287C35.4214 21.0223 35.7045 19.6619 35.7045 18.1477C35.7045 16.6335 35.4214 15.2794 34.8551 14.0852C34.3011 12.8911 33.4025 11.9555 32.1591 11.2784C30.9157 10.589 29.2661 10.2443 27.2102 10.2443H19.1591V44H14.5795Z" fill="#BCBDC3"/>
<path d="M2.51136 10.2443V6.18182H30.875V10.2443H18.983V44H14.4034V10.2443H2.51136Z" fill="#BCBDC3"/>
</g>
<defs>
<clipPath id="clip0_345_11">
<rect width="43" height="49" fill="white"/>
</clipPath>
</defs>
</svg>
